<?xml version="1.0" encoding="UTF-8" standalone="no"?>
<!-- Generator: Adobe Illustrator 28.3.0, SVG Export Plug-In . SVG Version: 6.00 Build 0)  -->

<svg
   version="1.1"
   id="Router_Medium_x5F_Black_00000159464448132936669960000002337362428709113490_"
   x="0px"
   y="0px"
   viewBox="0 0 182.03951 177.93747"
   xml:space="preserve"
   width="182.03951"
   height="177.93747"
   xmlns="http://www.w3.org/2000/svg"
   xmlns:svg="http://www.w3.org/2000/svg"><defs
   id="defs11" />
<style
   type="text/css"
   id="style1">
	.st0{fill:#ACCBFA;}
	.st1{fill:#FA2921;}
	.st2{fill:#ED79B5;}
	.st3{fill:#FFB400;}
	.st4{fill:#1E83F7;}
	.st5{fill:#18C249;}
</style>

<g
   id="g11"
   transform="translate(-29.918033,-42.990002)">
	<path
   class="st1"
   d="m 114.82,96.21 c 11.92,10.55 21.52,21.86 27.7,32.52 10.62,-18.99 17.71,-41.55 17.8,-55.92 0,-0.1 0,-0.19 0,-0.28 0,-21.26 -21.21,-29.54 -39.48,-29.54 -18.27,0 -39.48,8.28 -39.48,29.54 0,0.29 0,0.68 0,1.15 10.18,4.52 22.25,12.61 33.46,22.53 z"
   id="path7" />
	<path
   class="st2"
   d="m 49.8,154.19 c 7.45,-8.29 18.88,-17.27 31.77,-24.86 13.72,-8.07 27.44,-13.71 39.49,-16.3 C 106.28,97.07 87.02,83.35 73.38,78.82 73.28,78.79 73.2,78.76 73.11,78.73 52.89,72.16 38.46,89.78 32.81,107.15 c -5.65,17.37 -4.33,40.11 15.89,46.68 0.29,0.1 0.65,0.22 1.1,0.36 z"
   id="path8" />
	<path
   class="st3"
   d="M 209.07,106.86 C 203.42,89.48 189,71.87 168.77,78.44 c -0.28,0.09 -0.65,0.21 -1.09,0.35 -1.16,11.08 -5.12,25.07 -11.09,38.79 -6.35,14.6 -14.14,27.23 -22.36,36.39 21.34,4.23 44.99,4 58.68,-0.35 0.1,-0.03 0.19,-0.06 0.27,-0.09 20.22,-6.56 21.53,-29.29 15.89,-46.67 z"
   id="path9" />
	<path
   class="st4"
   d="m 102.8,171.18 c -3.44,-15.54 -4.56,-30.34 -3.3,-42.59 -19.75,9.12 -38.75,23.2 -47.27,34.78 -0.06,0.08 -0.11,0.16 -0.16,0.23 -12.5,17.2 -0.2,36.37 14.58,47.11 14.78,10.74 36.81,16.51 49.31,-0.69 0.17,-0.24 0.4,-0.55 0.68,-0.93 -5.59,-9.65 -10.6,-23.3 -13.84,-37.91 z"
   id="path10" />
	<path
   class="st5"
   d="m 189.48,162.49 c -10.9,2.33 -25.42,2.88 -40.32,1.44 -15.84,-1.53 -30.26,-5.03 -41.52,-10.02 2.57,21.6 10.09,44.02 18.47,55.7 0.06,0.08 0.11,0.16 0.16,0.23 12.5,17.2 34.52,11.43 49.31,0.69 14.78,-10.74 27.08,-29.9 14.58,-47.11 -0.17,-0.24 -0.4,-0.56 -0.68,-0.93 z"
   id="path11" />
</g>
</svg>
