<?xml version="1.0" encoding="UTF-8" standalone="no"?>
<svg
   width="32.155399"
   height="39.462002"
   viewBox="0 0 32.155399 39.462002"
   fill="none"
   version="1.1"
   id="svg1"
   xmlns="http://www.w3.org/2000/svg"
   xmlns:svg="http://www.w3.org/2000/svg">
  <defs
     id="defs1" />
  <path
     d="m 26.2064,10.9191 c 0.1383,-0.0992 0.2711,-0.1976 0.3886,-0.2897 0.153,-0.12 0.2939,-0.254 0.4316,-0.3878 C 27.4058,9.8741 27.7385,9.4741 28.021,9.0453 28.7824,7.89014 29.214,6.86051 29.4639,5.6027 29.7671,4.0762 29.6324,2.70972 29.0634,1.54162 28.8094,1.02046 28.4264,0.55769001 27.9381,0.28503001 27.5761,0.08299001 27.1384,1.0109112e-8 26.7457,1.0109112e-8 26.3933,1.0109112e-8 26.0597,0.08818001 25.7542,0.26196001 24.8711,0.76416001 24.404,1.33897 23.8956,2.16212 23.7818,2.34644 23.4942,2.86149 23.185,3.45326 23.0437,3.72362 22.7976,4.2272 22.5991,4.63557 L 22.5022,4.83578 C 22.1678,5.52643 21.7099,6.47231 21.1436,7.37999 20.9043,7.7636 20.6451,8.14 20.3862,8.4804 19.5789,6.3612 18.1567,3.81364 16.4751,2.76077 14.2411,1.36174 11.4504,1.51656 8.3866999,3.18794 c -0.0113,-0.02736 -0.0246,-0.05365 -0.0397,-0.07856 -0.1643,-0.27051 -0.4555,-0.41952 -0.82,-0.41952 -0.4224,0 -0.882,0.19608 -1.2295,0.52437 -0.275,0.26012 -0.4744,0.59665 -0.5473,0.92295 -0.0642,0.28779 -0.002,0.52651 0.1718,0.68454 -1.23095,0.96178 -2.25004,2.00883 -3.03117,3.11412 -1.19622,1.69296 -1.28211,3.57476 -1.20829,5.19246 0.08268,1.8105 0.62233,3.4606 1.19316,4.974 0.12028,0.3192 0.25661,0.6646 0.4287,1.0868 0.09949,0.2437 0.30031,0.6689 0.52758,0.7783 0.07687,0.0373 0.17636,0.0554 0.30398,0.0554 0.06511,0 0.26348,-0.0444 0.49472,-0.1402 0.0269,-0.011 0.0541,-0.0231 0.08192,-0.0354 l -0.09155,0.3879 -0.13189,0.5601 L -5.0148618e-8,39.4206 10.1993,39.462 11.3119,31.32 h 6.0083 c 8.2336,0 14.8352,-5.6209 14.8352,-13.515 0,-3.769 -2.2234,-6.0075 -5.949,-6.8859 z m -4.6953,13.2092 c -0.1854,1.0335 -1.1868,1.8186 -3.1525,1.8186 h -5.7487 l 0.7789,-3.2239 h 5.7486 c 1.4466,2e-4 2.5221,0.3309 2.3737,1.4053 z m -2.799,-10.8772 -0.2348,0.0736 c -0.5705,0.179 -1.2798,0.4012 -2.4215,0.8175 l -0.0152,2e-4 -0.0199,0.0127 c -0.76,0.2774 -1.5869,0.5948 -2.5268,0.9701 -0.1293,0.0516 -0.256,0.1032 -0.3795,0.1544 -0.3503,0.1454 -0.6926,0.2951 -1.0185,0.4455 l -0.0802,0.0372 c -0.1087,0.0508 -0.2103,0.099 -0.3046,0.1447 -0.1572,0.0764 -0.2946,0.1455 -0.4125,0.2072 -0.0969,0.0485 -2.0067001,1.033 -3.1914001,1.6303 C 8.7121999,17.1922 11.608,15.3582 13.4933,14.0942 13.2401,13.1639 12.8977,12.132 12.4938,11.0892 12.2751,10.5241 12.0449,9.9717 11.806,9.4385 11.6741,9.1437 11.2091,7.94898 10.2451,6.7792 9.9285999,6.39498 9.5113999,6.0077 9.0239999,5.67162 c -0.3188,-0.21977 -0.716,-0.46797 -1.1669,-0.60735 0.2799,-0.18707 0.7028,-0.442 0.7582,-0.47531 C 10.2441,3.60563 11.777,3.10755 13.1777,3.10755 c 0.944,0 1.8247,0.23353 2.6174,0.69416 0.101,0.05885 0.2082,0.12716 0.328,0.20908 l 0.0474,0.03209 c 0.0966,0.06756 0.1957,0.14229 0.2954,0.22253 l 0.0546,0.04463 c 0.1008,0.08329 0.1922,0.16322 0.2799,0.24514 l 0.0404,0.03867 c 0.0989,0.09399 0.1874,0.18248 0.2679,0.26822 l 0.0118,0.01253 c 0.0822,0.08773 0.1673,0.18432 0.2682,0.30414 l 0.0335,0.03989 c 0.081,0.09766 0.1595,0.19807 0.2364,0.29986 l 0.0445,0.05975 c 0.077,0.10393 0.1525,0.20984 0.226,0.3182 l 0.0303,0.0457 c 0.0736,0.10958 0.1459,0.22084 0.2173,0.33623 l 0.0109,0.01712 c 0.0719,0.11661 0.1416,0.23505 0.2101,0.35487 l 0.0336,0.059 c 0.0659,0.1163 0.1302,0.23429 0.1932,0.3535 l 0.0339,0.06495 c 0.0635,0.1212 0.1257,0.24316 0.1866,0.36726 l 0.0205,0.04218 c 0.061,0.12471 0.1208,0.2505 0.1794,0.37689 l 0.0106,0.02277 c 0.0597,0.12929 0.118,0.25919 0.1754,0.38999 l 0.026,0.0587 c 0.0555,0.1272 0.1099,0.2545 0.1631,0.381 l 0.0258,0.0621 c 0.0544,0.1304 0.1082,0.2607 0.1657,0.4036 l 0.0451,0.1131 c -0.2791,0.3017 -0.5109,0.5513 -0.8336,0.8735 -0.2907,0.2902 -1.6316,1.4904 -2.896,2.5345 -0.33,0.2725 -0.6197,0.5278 -0.6197,0.634 10e-5,0.0711 0.421,-0.0712 0.9993,-0.3673 0.2022,-0.0953 0.426,-0.1899 0.6435,-0.32 1.0171,-0.608 2.0748,-1.4519 2.3507,-1.6848 0.4498,-0.3797 0.8627,-0.7491 1.2641,-1.1926 0.0874,-0.0966 0.1719,-0.1918 0.2524,-0.2855 0.1776,-0.2058 0.3575,-0.4294 0.5499,-0.683 0.2683,-0.3535 0.5117,-0.7058 0.7453,-1.07929 0.1505,-0.24041 0.2955,-0.48662 0.4487,-0.7631 l 3e-4,1.6e-4 0.0055,-0.00948 c 0.1076,-0.18691 0.2135,-0.37612 0.3194,-0.56533 l 0.1365,-0.24422 c 0.105,-0.18936 0.2094,-0.37995 0.3136,-0.5716 L 23.4861,5.34487 C 23.6704,5.00374 23.8546,4.66002 24.0403,4.31309 L 24.182,4.04885 c 0.5246,-0.97859 1.4048,-2.5326 2.6476,-2.6165 0.4393,-0.02965 0.8781,0.31652 1.0372,0.52788 0.3279,0.43558 0.5819,1.08771 0.6596,1.55997 0.1131,0.68744 0.0926,1.31803 -0.0679,2.10832 -0.0394,0.1941 -0.1629,0.71893 -0.4563,1.40011 -0.2466,0.57189 -0.5544,1.11997 -0.9146,1.62847 -0.7909,1.1169 -2.4965,2.3374 -4.3452,3.1096 -0.7651,0.3202 -2.6515,1.0003 -4.0303,1.4844 z"
     fill="#ff3eb5"
     id="path1" />
</svg>
