<svg width="43" height="43" viewBox="0 0 43 43" fill="none" xmlns="http://www.w3.org/2000/svg">
<path d="M31.2064 12.9191C31.3447 12.8199 31.4775 12.7215 31.595 12.6294C31.748 12.5094 31.8889 12.3754 32.0266 12.2416C32.4058 11.8741 32.7385 11.4741 33.021 11.0453C33.7824 9.89014 34.214 8.86051 34.4639 7.6027C34.7671 6.0762 34.6324 4.70972 34.0634 3.54162C33.8094 3.02046 33.4264 2.55769 32.9381 2.28503C32.5761 2.08299 32.1384 2 31.7457 2C31.3933 2 31.0597 2.08818 30.7542 2.26196C29.8711 2.76416 29.404 3.33897 28.8956 4.16212C28.7818 4.34644 28.4942 4.86149 28.185 5.45326C28.0437 5.72362 27.7976 6.2272 27.5991 6.63557L27.5022 6.83578C27.1678 7.52643 26.7099 8.47231 26.1436 9.37999C25.9043 9.7636 25.6451 10.14 25.3862 10.4804C24.5789 8.3612 23.1567 5.81364 21.4751 4.76077C19.2411 3.36174 16.4504 3.51656 13.3867 5.18794C13.3754 5.16058 13.3621 5.13429 13.347 5.10938C13.1827 4.83887 12.8915 4.68986 12.527 4.68986C12.1046 4.68986 11.645 4.88594 11.2975 5.21423C11.0225 5.47435 10.8231 5.81088 10.7502 6.13718C10.686 6.42497 10.7482 6.66369 10.922 6.82172C9.69105 7.7835 8.67196 8.83055 7.89083 9.93584C6.69461 11.6288 6.60872 13.5106 6.68254 15.1283C6.76522 16.9388 7.30487 18.5889 7.8757 20.1023C7.99598 20.4215 8.13231 20.7669 8.3044 21.1891C8.40389 21.4328 8.60471 21.858 8.83198 21.9674C8.90885 22.0047 9.00834 22.0228 9.13596 22.0228C9.20107 22.0228 9.39944 21.9784 9.63068 21.8826C9.65758 21.8716 9.68478 21.8595 9.7126 21.8472L9.62105 22.2351L9.48916 22.7952L5 41.4206L15.1993 41.462L16.3119 33.32H22.3202C30.5538 33.32 37.1554 27.6991 37.1554 19.805C37.1554 16.036 34.932 13.7975 31.2064 12.9191ZM26.5111 26.1283C26.3257 27.1618 25.3243 27.9469 23.3586 27.9469H17.6099L18.3888 24.723H24.1374C25.584 24.7232 26.6595 25.0539 26.5111 26.1283ZM23.7121 15.2511L23.4773 15.3247C22.9068 15.5037 22.1975 15.7259 21.0558 16.1422L21.0406 16.1424L21.0207 16.1551C20.2607 16.4325 19.4338 16.7499 18.4939 17.1252C18.3646 17.1768 18.2379 17.2284 18.1144 17.2796C17.7641 17.425 17.4218 17.5747 17.0959 17.7251L17.0157 17.7623C16.907 17.8131 16.8054 17.8613 16.7111 17.907C16.5539 17.9834 16.4165 18.0525 16.2986 18.1142C16.2017 18.1627 14.2919 19.1472 13.1072 19.7445C13.7122 19.1922 16.608 17.3582 18.4933 16.0942C18.2401 15.1639 17.8977 14.132 17.4938 13.0892C17.2751 12.5241 17.0449 11.9717 16.806 11.4385C16.6741 11.1437 16.2091 9.94898 15.2451 8.7792C14.9286 8.39498 14.5114 8.0077 14.024 7.67162C13.7052 7.45185 13.308 7.20365 12.8571 7.06427C13.137 6.8772 13.5599 6.62227 13.6153 6.58896C15.2441 5.60563 16.777 5.10755 18.1777 5.10755C19.1217 5.10755 20.0024 5.34108 20.7951 5.80171C20.8961 5.86056 21.0033 5.92887 21.1231 6.01079L21.1705 6.04288C21.2671 6.11044 21.3662 6.18517 21.4659 6.26541L21.5205 6.31004C21.6213 6.39333 21.7127 6.47326 21.8004 6.55518L21.8408 6.59385C21.9397 6.68784 22.0282 6.77633 22.1087 6.86207L22.1205 6.8746C22.2027 6.96233 22.2878 7.05892 22.3887 7.17874L22.4222 7.21863C22.5032 7.31629 22.5817 7.4167 22.6586 7.51849L22.7031 7.57824C22.7801 7.68217 22.8556 7.78808 22.9291 7.89644L22.9594 7.94214C23.033 8.05172 23.1053 8.16298 23.1767 8.27837L23.1876 8.29549C23.2595 8.4121 23.3292 8.53054 23.3977 8.65036L23.4313 8.70936C23.4972 8.82566 23.5615 8.94365 23.6245 9.06286L23.6584 9.12781C23.7219 9.24901 23.7841 9.37097 23.845 9.49507L23.8655 9.53725C23.9265 9.66196 23.9863 9.78775 24.0449 9.91414L24.0555 9.93691C24.1152 10.0662 24.1735 10.1961 24.2309 10.3269L24.2569 10.3856C24.3124 10.5128 24.3668 10.6401 24.42 10.7666L24.4458 10.8287C24.5002 10.9591 24.554 11.0894 24.6115 11.2323L24.6566 11.3454C24.3775 11.6471 24.1457 11.8967 23.823 12.2189C23.5323 12.5091 22.1914 13.7093 20.927 14.7534C20.597 15.0259 20.3073 15.2812 20.3073 15.3874C20.3074 15.4585 20.7283 15.3162 21.3066 15.0201C21.5088 14.9248 21.7326 14.8302 21.9501 14.7001C22.9672 14.0921 24.0249 13.2482 24.3008 13.0153C24.7506 12.6356 25.1635 12.2662 25.5649 11.8227C25.6523 11.7261 25.7368 11.6309 25.8173 11.5372C25.9949 11.3314 26.1748 11.1078 26.3672 10.8542C26.6355 10.5007 26.8789 10.1484 27.1125 9.77491C27.263 9.5345 27.408 9.28829 27.5612 9.01181L27.5615 9.01197L27.567 9.00249C27.6746 8.81558 27.7805 8.62637 27.8864 8.43716L28.0229 8.19294C28.1279 8.00358 28.2323 7.81299 28.3365 7.62134L28.4861 7.34487C28.6704 7.00374 28.8546 6.66002 29.0403 6.31309L29.182 6.04885C29.7066 5.07026 30.5868 3.51625 31.8296 3.43235C32.2689 3.4027 32.7077 3.74887 32.8668 3.96023C33.1947 4.39581 33.4487 5.04794 33.5264 5.5202C33.6395 6.20764 33.619 6.83823 33.4585 7.62852C33.4191 7.82262 33.2956 8.34745 33.0022 9.02863C32.7556 9.60052 32.4478 10.1486 32.0876 10.6571C31.2967 11.774 29.5911 12.9945 27.7424 13.7667C26.9773 14.0869 25.0909 14.767 23.7121 15.2511Z" fill="#FF3EB5"/>
</svg>
