<svg xmlns="http://www.w3.org/2000/svg" viewBox="0 0 408 670"><defs><style>.a{fill:#fff;}.b{fill:none;}</style></defs><path class="a" d="M304.3,158.7H620.1c35.8,0,66,20.3,78.5,52.7a87.4,87.4,0,0,1,5.5,30.4c.2,15.3.2,30.7.1,46a82.1,82.1,0,0,1-59.8,78.6,99.7,99.7,0,0,1-25.5,3.3c-85.5.3-171.1.2-256.6.2h-5.2v91.9H304.3Zm53,158.1h3c24.2.1,48.4.3,72.6.3,21,.1,42-.1,62.9-.1H599.5c19.1,0,32.5-13.5,32.6-32.6V244.8c0-20-13.4-33.4-33.4-33.4H361.3l-4,.2Z" transform="translate(-296.3 -158.7)"/><path class="a" d="M696.5,828.7h-4.3q-155.7,0-311.4,0c-26.6,0-48.6-9.6-65.7-30-11.6-14-18-30.2-18.5-48.4s-.4-36.2-.1-54.3c.6-36.1,28.4-68.9,64.8-76.3a99.9,99.9,0,0,1,21.1-2H643.6V525.5h52.9ZM643.6,670.5H383.2c-11.5,0-17.5,6.1-17.6,17.6v70.4c.1,11.5,6.2,17.7,17.6,17.7H643.6Z" transform="translate(-296.3 -158.7)"/><path class="a" d="M607.1,490.1a106.8,106.8,0,0,1-213,13.5C388.8,443.9,432,392.4,491,387.3,552.2,382.1,605,428.3,607.1,490.1ZM431.7,501.9H504a30.5,30.5,0,0,0,5.2-.5c15.8-3.4,22-19.7,16.1-34.7-3.9-10.1-12.3-14-22.9-14-27.1.2-54.2.1-81.3.1h-3.7v14.7h95.4c0,5.5-.1,10.9.1,16.2.1,2.9-.9,3.6-3.6,3.6q-17.2-.2-34.5,0c-12.4,0-24.7-.2-37.1.3-10,.3-19,7.9-20,17.9s-.3,20.4-.3,30.6H525.1V521.8H431.7Zm151.9,34.3V516.9c0-16,.1-31.9,0-47.9-.1-7.7-3.9-13.4-11-16.5s-12.8-2.6-17.9,2.1-11.6,12.3-17.2,18.3l10,10.1,21.7-22.6v75.8Z" transform="translate(-296.3 -158.7)"/><path class="b" d="M357.3,316.8V211.7l4-.2H598.7c20,0,33.4,13.4,33.4,33.4v39.6c-.1,19.1-13.5,32.6-32.6,32.6H495.8c-20.9,0-41.9.2-62.9.1-24.2,0-48.4-.2-72.6-.3Z" transform="translate(-296.3 -158.7)"/><path class="b" d="M643.6,670.5V776H383.2c-11.4,0-17.5-6.2-17.6-17.7V688c.1-11.5,6.1-17.6,17.6-17.6H643.6Z" transform="translate(-296.3 -158.7)"/><path d="M431.7,501.9v19.9h93.4v14.3H417.4c0-10.2-.8-20.5.3-30.6s10-17.6,20-17.9c12.4-.5,24.7-.3,37.1-.3s23-.1,34.5,0c2.7,0,3.7-.7,3.6-3.6-.2-5.3-.1-10.7-.1-16.2H417.4V452.8h3.7c27.1,0,54.2.1,81.3-.1,10.6,0,19,3.9,22.9,14,5.9,15-.3,31.3-16.1,34.7a30.5,30.5,0,0,1-5.2.5H431.7Z" transform="translate(-296.3 -158.7)"/><path d="M583.6,536.2H569.2V460.4L547.5,483l-10-10.1c5.6-6,11-12.6,17.2-18.3s11.6-4.9,17.9-2.1,10.9,8.8,11,16.5c.1,16,0,31.9,0,47.9Z" transform="translate(-296.3 -158.7)"/></svg>